<svg width="177" height="58" viewBox="0 0 177 58" fill="none" xmlns="http://www.w3.org/2000/svg">
<g filter="url(#filter0_d_2_2)">
<path d="M4.59375 43.7188C4.59375 42.7604 4.72917 41.7812 5 40.7812C5.27083 39.7604 5.63542 38.9167 6.09375 38.25L9.09375 38.8125L12.4688 9.5625L7.65625 8.875C7.26042 7.83333 7.0625 6.77083 7.0625 5.6875C7.0625 4.58333 7.28125 3.45833 7.71875 2.3125C8.82292 1.79167 10.7083 1.375 13.375 1.0625C16.0625 0.729167 18.4479 0.5625 20.5312 0.5625C22.4688 0.5625 24.8542 0.604167 27.6875 0.6875L28.7812 1.1875C29.2396 2.47917 29.8646 4.69792 30.6562 7.84375C31.4688 10.9688 32.8438 16.4896 34.7812 24.4062C35.0938 25.6354 35.4375 27.0312 35.8125 28.5938C36.8125 24.9688 38.0417 19.8438 39.5 13.2188L40.2812 9.8125H40.4375L35.25 8.9375C34.75 7.77083 34.5 6.52083 34.5 5.1875C34.5 4.3125 34.6146 3.36458 34.8438 2.34375C36.8646 1.69792 38.9688 1.23958 41.1562 0.96875C43.3646 0.697917 45.7708 0.5625 48.375 0.5625H49.4062C50.5104 0.5625 52.0833 0.604167 54.125 0.6875L55.2188 1.1875C56.5521 6.02083 57.8229 11.8854 59.0312 18.7812C60.2604 25.6562 61.1875 31.9688 61.8125 37.7188L61.9062 38.5C61.9271 38.6458 61.9792 39.1458 62.0625 40C62.1458 40.8333 62.1875 41.6354 62.1875 42.4062C62.1875 43.3438 62.0938 44.2708 61.9062 45.1875C61.5938 46.5625 61.0312 47.6979 60.2188 48.5938C59.4062 48.9271 58.5521 49.1771 57.6562 49.3438C56.7812 49.5312 55.7604 49.625 54.5938 49.625C53.4479 49.625 52.3021 49.4896 51.1562 49.2188C50.0312 48.9688 49.2812 48.5938 48.9062 48.0938L50.0312 40.9375L48.1562 21.2812L48.3125 10.8125H47.3438L45.8125 21.5312C43.7708 29.0938 41.9062 34.9479 40.2188 39.0938C40.8021 40.2396 41.3021 41.5104 41.7188 42.9062C42.1562 44.3021 42.4271 45.6667 42.5312 47C41.6562 47.8333 40.4583 48.4792 38.9375 48.9375C37.4375 49.3958 35.8438 49.625 34.1562 49.625C32.4271 49.625 30.8438 49.3854 29.4062 48.9062C27.9896 48.4271 26.9583 47.7604 26.3125 46.9062C26.4167 44.8021 26.9375 42.7708 27.875 40.8125L22.3125 20.7188L20 11.25L18.9375 11.4062L20.4688 22C20.3854 25.6875 20.25 29.4375 20.0625 33.25C19.875 37.0625 19.6667 40.0833 19.4375 42.3125H19.4688C19.3021 43.625 18.8542 44.7917 18.125 45.8125C17.4167 46.8125 16.5104 47.5938 15.4062 48.1562C14.3229 48.7188 13.1458 49 11.875 49C8.54167 49 6.13542 47.5625 4.65625 44.6875C4.61458 44.2708 4.59375 43.9479 4.59375 43.7188ZM70.3125 47.4688C70.3125 46.5729 70.2708 43.9167 70.1875 39.5C70.0208 33.0417 69.9375 27.4583 69.9375 22.75C69.9375 18.1458 70.0208 14.25 70.1875 11.0625L65.0938 10.4062C64.7812 9.13542 64.5729 8.08333 64.4688 7.25C64.3646 6.39583 64.3229 5.41667 64.3438 4.3125C64.7604 3.79167 65.5312 3.23958 66.6562 2.65625C67.8021 2.05208 69.0938 1.55208 70.5312 1.15625C71.9896 0.760417 73.3958 0.5625 74.75 0.5625C77.1667 0.5625 79.1354 1.10417 80.6562 2.1875C82.1979 3.27083 83.0104 4.83333 83.0938 6.875C83.1354 8.08333 83.1562 9.11458 83.1562 9.96875C83.1562 13.9062 82.9896 18.6562 82.6562 24.2188C82.3229 29.7604 81.875 36.3125 81.3125 43.875L81 48.2812C79.3542 49.1979 77.4792 49.6562 75.375 49.6562C73.5833 49.6562 71.8958 49.3333 70.3125 48.6875V47.4688ZM88.8438 25.375C88.8438 8.83333 95.3438 0.5625 108.344 0.5625C113.49 0.5625 117.5 1.63542 120.375 3.78125C123.271 5.90625 125.26 8.78125 126.344 12.4062C127.448 16.0104 128 20.3333 128 25.375C128 32.7917 126.479 38.6875 123.438 43.0625C120.396 47.4375 115.365 49.625 108.344 49.625C101.281 49.625 96.2604 47.4583 93.2812 43.125C90.3229 38.7917 88.8438 32.875 88.8438 25.375ZM109.906 39.6562C111.615 39.6562 112.594 39.5625 112.844 39.375C113.365 38.4583 113.76 36.8646 114.031 34.5938C114.302 32.3021 114.438 29.7396 114.438 26.9062C114.438 23.9271 114.292 21.1667 114 18.625C113.729 16.0625 113.344 14.2708 112.844 13.25C112.323 12.8333 111.552 12.5208 110.531 12.3125C109.51 12.1042 108.385 11.9896 107.156 11.9688C106.448 11.9688 105.802 12.0104 105.219 12.0938C104.656 12.1562 104.25 12.2604 104 12.4062C103.396 13.4479 102.948 14.9583 102.656 16.9375C102.385 18.8958 102.25 21.1354 102.25 23.6562C102.25 26.5104 102.406 29.3542 102.719 32.1875C103.031 35.0208 103.417 37.1875 103.875 38.6875C104.167 39 104.906 39.2396 106.094 39.4062C107.281 39.5729 108.552 39.6562 109.906 39.6562ZM132.594 38.9688C132.781 39.0312 133.177 39.1771 133.781 39.4062C134.406 39.6146 135.094 39.7917 135.844 39.9375V10.5L130.938 8.84375C130.458 7.71875 130.219 6.42708 130.219 4.96875C130.219 3.78125 130.406 2.71875 130.781 1.78125C132.281 1.38542 134.083 1.08333 136.188 0.875C138.312 0.645833 140.365 0.53125 142.344 0.53125C145.281 0.53125 147.875 0.75 150.125 1.1875C151.167 3.20833 152.708 7.01042 154.75 12.5938C156.812 18.1771 159.292 25.5 162.188 34.5625L162.719 34.5C162.115 29.3542 161.51 23.3229 160.906 16.4062C160.323 9.46875 160.031 4.71875 160.031 2.15625C161.115 1.65625 162.323 1.27083 163.656 1C164.99 0.708333 166.219 0.5625 167.344 0.5625C169.177 0.5625 170.938 0.9375 172.625 1.6875L169.594 41.1875C170.677 42.75 171.354 44.5833 171.625 46.6875C170.771 47.625 169.469 48.3542 167.719 48.875C165.99 49.375 164.146 49.625 162.188 49.625C160.667 49.625 159.281 49.4688 158.031 49.1562C156.802 48.8438 155.844 48.3646 155.156 47.7188C155.177 46.1562 155.312 44.7292 155.562 43.4375C154 40.3125 152.49 36.875 151.031 33.125C149.594 29.3542 147.76 24.3542 145.531 18.125L144.156 14.3125L143.969 14.3438C144.406 17.5938 144.875 22.3854 145.375 28.7188C145.875 35.0312 146.125 39.6458 146.125 42.5625C146.125 44.8958 145.427 46.6562 144.031 47.8438C142.656 49.0312 140.5 49.625 137.562 49.625C136.646 49.625 135.667 49.4479 134.625 49.0938C133.583 48.7396 132.635 48.2917 131.781 47.75C130.948 47.1875 130.365 46.6458 130.031 46.125C130.031 44.625 130.26 43.1979 130.719 41.8438C131.177 40.4896 131.802 39.5312 132.594 38.9688Z" fill="#2897FD"/>
<path d="M5 40.7812L5.96524 41.0427L5.96656 41.0377L5 40.7812ZM6.09375 38.25L6.27804 37.2671L5.6384 37.1472L5.26971 37.6835L6.09375 38.25ZM9.09375 38.8125L8.90946 39.7954L9.96416 39.9931L10.0872 38.9271L9.09375 38.8125ZM12.4688 9.5625L13.4622 9.67712L13.5737 8.7102L12.6102 8.57255L12.4688 9.5625ZM7.65625 8.875L6.72147 9.23022L6.93097 9.78154L7.51483 9.86495L7.65625 8.875ZM7.71875 2.3125L7.29213 1.40807L6.9281 1.57978L6.78453 1.9558L7.71875 2.3125ZM13.375 1.0625L13.4914 2.05573L13.4981 2.0549L13.375 1.0625ZM27.6875 0.6875L28.1033 -0.221974L27.9192 -0.306118L27.7169 -0.312068L27.6875 0.6875ZM28.7812 1.1875L29.7237 0.85309L29.5821 0.454061L29.197 0.278026L28.7812 1.1875ZM30.6562 7.84375L29.6865 8.0878L29.6884 8.09538L30.6562 7.84375ZM34.7812 24.4062L33.8099 24.644L33.8121 24.6526L34.7812 24.4062ZM35.8125 28.5938L34.8401 28.8271L36.7765 28.8597L35.8125 28.5938ZM39.5 13.2188L38.5253 12.9952L38.5234 13.0038L39.5 13.2188ZM40.2812 9.8125V8.8125H39.4846L39.3066 9.58895L40.2812 9.8125ZM40.4375 9.8125V10.8125L40.6038 8.82643L40.4375 9.8125ZM35.25 8.9375L34.3309 9.33142L34.5457 9.83284L35.0837 9.92357L35.25 8.9375ZM34.8438 2.34375L34.5393 1.39121L33.9935 1.56564L33.868 2.12471L34.8438 2.34375ZM41.1562 0.96875L41.0345 -0.0238142L41.0334 -0.0236731L41.1562 0.96875ZM54.125 0.6875L54.5408 -0.221974L54.3621 -0.303656L54.1658 -0.311668L54.125 0.6875ZM55.2188 1.1875L56.1827 0.921571L56.0587 0.471945L55.6345 0.278026L55.2188 1.1875ZM59.0312 18.7812L58.0463 18.9538L58.0469 18.9572L59.0312 18.7812ZM61.8125 37.7188L60.8183 37.8268L60.8196 37.8379L61.8125 37.7188ZM61.9062 38.5L60.9134 38.6191L60.9147 38.6303L60.9163 38.6414L61.9062 38.5ZM62.0625 40L61.0672 40.0971L61.0675 40.0995L62.0625 40ZM61.9062 45.1875L62.8814 45.4091L62.8838 45.3985L62.886 45.3879L61.9062 45.1875ZM60.2188 48.5938L60.5983 49.5189L60.8075 49.4331L60.9595 49.2656L60.2188 48.5938ZM57.6562 49.3438L57.4733 48.3606L57.46 48.3631L57.4467 48.3659L57.6562 49.3438ZM51.1562 49.2188L51.3863 48.2455L51.3732 48.2426L51.1562 49.2188ZM48.9062 48.0938L47.9184 47.9385L47.8528 48.3558L48.1063 48.6937L48.9062 48.0938ZM50.0312 40.9375L51.0191 41.0928L51.0387 40.9682L51.0267 40.8425L50.0312 40.9375ZM48.1562 21.2812L47.1564 21.2663L47.1555 21.3214L47.1608 21.3762L48.1562 21.2812ZM48.3125 10.8125L49.3124 10.8274L49.3275 9.8125H48.3125V10.8125ZM47.3438 10.8125V9.8125H46.4765L46.3538 10.6711L47.3438 10.8125ZM45.8125 21.5312L46.7779 21.7919L46.7938 21.733L46.8024 21.6727L45.8125 21.5312ZM40.2188 39.0938L39.2925 38.7167L39.1202 39.1401L39.3276 39.5474L40.2188 39.0938ZM41.7188 42.9062L40.7604 43.1923L40.7645 43.2053L41.7188 42.9062ZM42.5312 47L43.2209 47.7241L43.5653 47.3962L43.5282 46.9221L42.5312 47ZM38.9375 48.9375L38.6489 47.98L38.6453 47.9811L38.9375 48.9375ZM29.4062 48.9062L29.0858 49.8535L29.09 49.8549L29.4062 48.9062ZM26.3125 46.9062L25.3137 46.8568L25.2958 47.2196L25.5148 47.5094L26.3125 46.9062ZM27.875 40.8125L28.777 41.2443L28.9387 40.9066L28.8388 40.5457L27.875 40.8125ZM22.3125 20.7188L21.3411 20.956L21.3447 20.9708L21.3487 20.9855L22.3125 20.7188ZM20 11.25L20.9714 11.0127L20.7554 10.1282L19.8545 10.2606L20 11.25ZM18.9375 11.4062L18.792 10.4169L17.8051 10.562L17.9478 11.5493L18.9375 11.4062ZM20.4688 22L21.4685 22.0226L21.4704 21.9394L21.4585 21.8569L20.4688 22ZM19.4375 42.3125L18.4427 42.2102L18.3294 43.3125H19.4375V42.3125ZM19.4688 42.3125L20.4608 42.4385L20.6038 41.3125H19.4688V42.3125ZM18.125 45.8125L17.3113 45.2313L17.309 45.2345L18.125 45.8125ZM15.4062 48.1562L14.9523 47.2652L14.9454 47.2688L15.4062 48.1562ZM4.65625 44.6875L3.66121 44.787L3.68012 44.9761L3.76704 45.145L4.65625 44.6875ZM5.59375 43.7188C5.59375 42.8555 5.71562 41.9643 5.96523 41.0427L4.03477 40.5198C3.74272 41.5982 3.59375 42.6653 3.59375 43.7188H5.59375ZM5.96656 41.0377C6.2165 40.0956 6.5408 39.3649 6.91779 38.8165L5.26971 37.6835C4.73003 38.4685 4.32517 39.4252 4.03344 40.5248L5.96656 41.0377ZM5.90946 39.2329L8.90946 39.7954L9.27804 37.8296L6.27804 37.2671L5.90946 39.2329ZM10.0872 38.9271L13.4622 9.67712L11.4753 9.44788L8.10034 38.6979L10.0872 38.9271ZM12.6102 8.57255L7.79767 7.88505L7.51483 9.86495L12.3273 10.5525L12.6102 8.57255ZM8.59103 8.51978C8.23706 7.58828 8.0625 6.64596 8.0625 5.6875H6.0625C6.0625 6.8957 6.28377 8.07839 6.72147 9.23022L8.59103 8.51978ZM8.0625 5.6875C8.0625 4.71803 8.25415 3.71372 8.65297 2.6692L6.78453 1.9558C6.30835 3.20295 6.0625 4.44864 6.0625 5.6875H8.0625ZM8.14537 3.21693C9.09087 2.77094 10.8348 2.36702 13.4914 2.0557L13.2586 0.0692968C10.5819 0.382978 8.55497 0.812392 7.29213 1.40807L8.14537 3.21693ZM13.4981 2.0549C16.1561 1.72522 18.4991 1.5625 20.5312 1.5625V-0.4375C18.3967 -0.4375 15.9689 -0.266883 13.2519 0.0701046L13.4981 2.0549ZM20.5312 1.5625C22.4556 1.5625 24.8305 1.6039 27.6581 1.68707L27.7169 -0.312068C24.8778 -0.395571 22.4819 -0.4375 20.5312 -0.4375V1.5625ZM27.2717 1.59697L28.3655 2.09698L29.197 0.278026L28.1033 -0.221974L27.2717 1.59697ZM27.8388 1.52191C28.2798 2.76467 28.895 4.94263 29.6865 8.0878L31.626 7.5997C30.8342 4.45321 30.1994 2.19366 29.7237 0.85309L27.8388 1.52191ZM29.6884 8.09538C30.4989 11.2126 31.8724 16.7271 33.8099 24.644L35.7526 24.1685C33.8151 16.2521 32.4386 10.7249 31.6241 7.59212L29.6884 8.09538ZM33.8121 24.6526C34.1232 25.8765 34.4659 27.2679 34.8401 28.8271L36.7849 28.3604C36.4091 26.7946 36.0643 25.3943 35.7504 24.1599L33.8121 24.6526ZM36.7765 28.8597C37.7834 25.2095 39.017 20.0646 40.4766 13.4337L38.5234 13.0038C37.0663 19.6229 35.8416 24.728 34.8485 28.3278L36.7765 28.8597ZM40.4747 13.4423L41.2559 10.0361L39.3066 9.58895L38.5253 12.9952L40.4747 13.4423ZM40.2812 10.8125H40.4375V8.8125H40.2812V10.8125ZM40.6038 8.82643L35.4163 7.95143L35.0837 9.92357L40.2712 10.7986L40.6038 8.82643ZM36.1691 8.54358C35.7252 7.50763 35.5 6.39236 35.5 5.1875H33.5C33.5 6.6493 33.7748 8.03403 34.3309 9.33142L36.1691 8.54358ZM35.5 5.1875C35.5 4.39885 35.6034 3.52524 35.8195 2.56279L33.868 2.12471C33.6258 3.20393 33.5 4.22615 33.5 5.1875H35.5ZM35.1482 3.29629C37.1076 2.67008 39.1509 2.22467 41.2791 1.96117L41.0334 -0.0236731C38.7866 0.254494 36.6216 0.725756 34.5393 1.39121L35.1482 3.29629ZM41.278 1.96131C43.4398 1.69618 45.8049 1.5625 48.375 1.5625V-0.4375C45.7368 -0.4375 43.2894 -0.300349 41.0345 -0.0238132L41.278 1.96131ZM48.375 1.5625H49.4062V-0.4375H48.375V1.5625ZM49.4062 1.5625C50.4899 1.5625 52.0468 1.60351 54.0842 1.68667L54.1658 -0.311668C52.1199 -0.395176 50.5309 -0.4375 49.4062 -0.4375V1.5625ZM53.7092 1.59697L54.803 2.09698L55.6345 0.278026L54.5408 -0.221974L53.7092 1.59697ZM54.2548 1.45343C55.577 6.24666 56.8415 12.0782 58.0463 18.9538L60.0162 18.6087C58.8044 11.6927 57.5271 5.79501 56.1827 0.921571L54.2548 1.45343ZM58.0469 18.9572C59.2728 25.8142 60.1963 32.1036 60.8184 37.8268L62.8066 37.6107C62.1787 31.8339 61.248 25.4983 60.0156 18.6053L58.0469 18.9572ZM60.8196 37.8379L60.9134 38.6191L62.8991 38.3809L62.8054 37.5996L60.8196 37.8379ZM60.9163 38.6414C60.9331 38.7591 60.9826 39.2294 61.0672 40.0971L63.0578 39.9029C62.9758 39.0623 62.9211 38.5326 62.8962 38.3586L60.9163 38.6414ZM61.0675 40.0995C61.1478 40.9026 61.1875 41.6713 61.1875 42.4062H63.1875C63.1875 41.5995 63.1439 40.7641 63.0575 39.9005L61.0675 40.0995ZM61.1875 42.4062C61.1875 43.2766 61.1005 44.1365 60.9265 44.9871L62.886 45.3879C63.087 44.4052 63.1875 43.4109 63.1875 42.4062H61.1875ZM60.9311 44.9659C60.6504 46.2012 60.1571 47.1732 59.478 47.9219L60.9595 49.2656C61.9054 48.2226 62.5371 46.9238 62.8814 45.4091L60.9311 44.9659ZM59.8392 47.6686C59.0924 47.9749 58.3043 48.206 57.4733 48.3606L57.8392 50.3269C58.7998 50.1481 59.7201 49.8792 60.5983 49.5189L59.8392 47.6686ZM57.4467 48.3659C56.6577 48.535 55.7099 48.625 54.5938 48.625V50.625C55.8109 50.625 56.9048 50.5275 57.8658 50.3216L57.4467 48.3659ZM54.5938 48.625C53.5275 48.625 52.4588 48.4991 51.3863 48.2456L50.9262 50.1919C52.1454 50.4801 53.3684 50.625 54.5938 50.625V48.625ZM51.3732 48.2426C50.3074 48.0057 49.8587 47.697 49.7062 47.4938L48.1063 48.6937C48.7038 49.4905 49.7551 49.9318 50.9393 50.1949L51.3732 48.2426ZM49.8941 48.249L51.0191 41.0928L49.0434 40.7822L47.9184 47.9385L49.8941 48.249ZM51.0267 40.8425L49.1517 21.1863L47.1608 21.3762L49.0358 41.0325L51.0267 40.8425ZM49.1561 21.2962L49.3124 10.8274L47.3126 10.7976L47.1564 21.2663L49.1561 21.2962ZM48.3125 9.8125H47.3438V11.8125H48.3125V9.8125ZM46.3538 10.6711L44.8226 21.3898L46.8024 21.6727L48.3337 10.9539L46.3538 10.6711ZM44.8471 21.2706C42.8094 28.8181 40.9573 34.6268 39.2925 38.7167L41.145 39.4708C42.8552 35.269 44.7322 29.3694 46.7779 21.7919L44.8471 21.2706ZM39.3276 39.5474C39.8802 40.633 40.3589 41.8468 40.7605 43.1923L42.677 42.6202C42.2453 41.1741 41.7239 39.8462 41.1099 38.6401L39.3276 39.5474ZM40.7645 43.2053C41.1816 44.5359 41.4365 45.8263 41.5343 47.0779L43.5282 46.9221C43.4177 45.507 43.1309 44.0682 42.673 42.6072L40.7645 43.2053ZM41.8416 46.2759C41.1101 46.9725 40.065 47.5533 38.6489 47.98L39.2261 49.895C40.8516 49.4051 42.2024 48.6942 43.2209 47.7241L41.8416 46.2759ZM38.6453 47.9811C37.2469 48.4084 35.7522 48.625 34.1562 48.625V50.625C35.9353 50.625 37.6281 50.3832 39.2297 49.8939L38.6453 47.9811ZM34.1562 48.625C32.5196 48.625 31.0448 48.3983 29.7225 47.9576L29.09 49.8549C30.6427 50.3725 32.3345 50.625 34.1562 50.625V48.625ZM29.7267 47.959C28.4272 47.5194 27.5958 46.9454 27.1102 46.3031L25.5148 47.5094C26.3209 48.5754 27.552 49.3347 29.0858 49.8535L29.7267 47.959ZM27.3113 46.9557C27.4087 44.9882 27.895 43.0866 28.777 41.2443L26.973 40.3807C25.98 42.4551 25.4247 44.6159 25.3137 46.8568L27.3113 46.9557ZM28.8388 40.5457L23.2763 20.452L21.3487 20.9855L26.9112 41.0793L28.8388 40.5457ZM23.2839 20.4815L20.9714 11.0127L19.0286 11.4873L21.3411 20.956L23.2839 20.4815ZM19.8545 10.2606L18.792 10.4169L19.083 12.3956L20.1455 12.2394L19.8545 10.2606ZM17.9478 11.5493L19.479 22.1431L21.4585 21.8569L19.9272 11.2632L17.9478 11.5493ZM19.469 21.9774C19.3859 25.6558 19.2508 29.3969 19.0637 33.2009L21.0613 33.2991C21.2492 29.4781 21.385 25.7192 21.4685 22.0226L19.469 21.9774ZM19.0637 33.2009C18.8766 37.0061 18.6693 40.0067 18.4427 42.2102L20.4323 42.4148C20.6641 40.1599 20.8734 37.1189 21.0613 33.2991L19.0637 33.2009ZM19.4375 43.3125H19.4688V41.3125H19.4375V43.3125ZM18.4767 42.1865C18.3297 43.3441 17.939 44.3525 17.3113 45.2313L18.9387 46.3937C19.7694 45.2308 20.2744 43.9059 20.4608 42.4385L18.4767 42.1865ZM17.309 45.2345C16.6953 46.1008 15.9139 46.7753 14.9523 47.2652L15.8602 49.0473C17.1069 48.4122 18.138 47.5242 18.941 46.3905L17.309 45.2345ZM14.9454 47.2688C14.0104 47.7543 12.9922 48 11.875 48V50C13.2994 50 14.6354 49.6832 15.8671 49.0437L14.9454 47.2688ZM11.875 48C10.3545 48 9.10417 47.6733 8.08317 47.0634C7.0639 46.4545 6.21293 45.5273 5.54546 44.23L3.76704 45.145C4.57874 46.7227 5.67047 47.9518 7.05746 48.7803C8.44271 49.6079 10.0621 50 11.875 50V48ZM5.65129 44.588C5.61071 44.1822 5.59375 43.8981 5.59375 43.7188H3.59375C3.59375 43.9978 3.61846 44.3595 3.66121 44.787L5.65129 44.588ZM70.1875 39.5L71.1873 39.4811L71.1872 39.4742L70.1875 39.5ZM70.1875 11.0625L71.1861 11.1147L71.2345 10.1891L70.3153 10.0707L70.1875 11.0625ZM65.0938 10.4062L64.1227 10.645L64.2863 11.3105L64.966 11.3981L65.0938 10.4062ZM64.4688 7.25L63.4761 7.37106L63.4765 7.37403L64.4688 7.25ZM64.3438 4.3125L63.5629 3.68781L63.3503 3.95347L63.3439 4.29364L64.3438 4.3125ZM66.6562 2.65625L67.1166 3.54403L67.1227 3.54082L66.6562 2.65625ZM70.5312 1.15625L70.2693 0.191162L70.2658 0.192134L70.5312 1.15625ZM80.6562 2.1875L80.0761 3.002L80.0813 3.00569L80.6562 2.1875ZM83.0938 6.875L84.0932 6.84054L84.0929 6.83422L83.0938 6.875ZM82.6562 24.2188L83.6544 24.2788L83.6545 24.2786L82.6562 24.2188ZM81.3125 43.875L80.3152 43.8008L80.315 43.8043L81.3125 43.875ZM81 48.2812L81.4866 49.1549L81.9592 48.8916L81.9975 48.352L81 48.2812ZM70.3125 48.6875H69.3125V49.3596L69.9348 49.6134L70.3125 48.6875ZM71.3125 47.4688C71.3125 46.5611 71.2706 43.893 71.1873 39.4811L69.1877 39.5189C69.2711 43.9403 69.3125 46.5848 69.3125 47.4688H71.3125ZM71.1872 39.4742C71.0206 33.0216 70.9375 27.4472 70.9375 22.75H68.9375C68.9375 27.4694 69.021 33.0618 69.1878 39.5258L71.1872 39.4742ZM70.9375 22.75C70.9375 18.1564 71.0207 14.2791 71.1861 11.1147L69.1889 11.0103C69.021 14.2209 68.9375 18.1353 68.9375 22.75H70.9375ZM70.3153 10.0707L65.2215 9.41445L64.966 11.3981L70.0597 12.0543L70.3153 10.0707ZM66.0648 10.1675C65.7571 8.91609 65.5585 7.90561 65.461 7.12597L63.4765 7.37403C63.5873 8.26106 63.8054 9.35475 64.1227 10.645L66.0648 10.1675ZM65.4614 7.12895C65.3642 6.33204 65.3234 5.40115 65.3436 4.33136L63.3439 4.29364C63.3224 5.43218 63.365 6.45963 63.4761 7.37105L65.4614 7.12895ZM65.1246 4.93719C65.4068 4.58451 66.0239 4.11057 67.1166 3.544L66.1959 1.7685C65.0386 2.3686 64.1141 2.99883 63.5629 3.68781L65.1246 4.93719ZM67.1227 3.54082C68.1959 2.97495 69.4187 2.49983 70.7967 2.12037L70.2658 0.192134C68.7688 0.604335 67.4083 1.12921 66.1898 1.77168L67.1227 3.54082ZM70.7932 2.12133C72.1759 1.74603 73.4939 1.5625 74.75 1.5625V-0.4375C73.2978 -0.4375 71.8033 -0.225199 70.2693 0.191169L70.7932 2.12133ZM74.75 1.5625C77.0197 1.5625 78.7684 2.07047 80.0761 3.00199L81.2364 1.37301C79.5025 0.137868 77.3136 -0.4375 74.75 -0.4375V1.5625ZM80.0813 3.00569C81.3444 3.89329 82.0227 5.15483 82.0946 6.91578L84.0929 6.83422C83.9981 4.51184 83.0514 2.64838 81.2312 1.36931L80.0813 3.00569ZM82.0943 6.90946C82.1358 8.1106 82.1562 9.12969 82.1562 9.96875H84.1562C84.1562 9.09948 84.1351 8.05606 84.0932 6.84054L82.0943 6.90946ZM82.1562 9.96875C82.1562 13.88 81.9906 18.6089 81.658 24.1589L83.6545 24.2786C83.9885 18.7036 84.1562 13.9325 84.1562 9.96875H82.1562ZM81.6581 24.1587C81.3251 29.6943 80.8775 36.2415 80.3153 43.8008L82.3097 43.9492C82.8725 36.3835 83.3207 29.8265 83.6544 24.2788L81.6581 24.1587ZM80.315 43.8043L80.0025 48.2105L81.9975 48.352L82.31 43.9457L80.315 43.8043ZM80.5134 47.4076C79.0332 48.2321 77.3292 48.6562 75.375 48.6562V50.6562C77.6292 50.6562 79.6752 50.1638 81.4866 49.1549L80.5134 47.4076ZM75.375 48.6562C73.7066 48.6562 72.1479 48.3562 70.6902 47.7616L69.9348 49.6134C71.6437 50.3105 73.4601 50.6562 75.375 50.6562V48.6562ZM71.3125 48.6875V47.4688H69.3125V48.6875H71.3125ZM120.375 3.78125L119.777 4.58267L119.783 4.58747L120.375 3.78125ZM126.344 12.4062L125.386 12.6926L125.388 12.6992L126.344 12.4062ZM93.2812 43.125L92.4554 43.6888L92.4572 43.6915L93.2812 43.125ZM112.844 39.375L113.444 40.175L113.61 40.0501L113.713 39.869L112.844 39.375ZM114.031 34.5938L115.024 34.7122L115.024 34.7111L114.031 34.5938ZM114 18.625L113.006 18.7301L113.007 18.739L114 18.625ZM112.844 13.25L113.742 12.8101L113.643 12.609L113.468 12.4691L112.844 13.25ZM107.156 11.9688L107.173 10.9689L107.165 10.9688H107.156V11.9688ZM105.219 12.0938L105.329 13.0876L105.345 13.0859L105.36 13.0837L105.219 12.0938ZM104 12.4062L103.496 11.5425L103.268 11.6757L103.135 11.9045L104 12.4062ZM102.656 16.9375L101.667 16.7917L101.666 16.8005L102.656 16.9375ZM103.875 38.6875L102.919 38.9797L102.986 39.2008L103.144 39.3698L103.875 38.6875ZM89.8438 25.375C89.8438 17.2079 91.453 11.2671 94.505 7.38353C97.521 3.54588 102.071 1.5625 108.344 1.5625V-0.4375C101.617 -0.4375 96.4165 1.71454 92.9325 6.14772C89.4845 10.535 87.8438 17.0004 87.8438 25.375H89.8438ZM108.344 1.5625C113.365 1.5625 117.135 2.61102 119.777 4.58264L120.973 2.97986C117.865 0.65981 113.615 -0.4375 108.344 -0.4375V1.5625ZM119.783 4.58747C122.494 6.57653 124.361 9.26426 125.386 12.6926L127.302 12.1199C126.16 8.29824 124.048 5.23597 120.967 2.97503L119.783 4.58747ZM125.388 12.6992C126.455 16.1826 127 20.4014 127 25.375H129C129 20.2653 128.441 15.8383 127.3 12.1133L125.388 12.6992ZM127 25.375C127 32.6651 125.504 38.3383 122.616 42.4917L124.259 43.6333C127.454 39.0367 129 32.9182 129 25.375H127ZM122.616 42.4917C119.819 46.5156 115.152 48.625 108.344 48.625V50.625C115.577 50.625 120.973 48.3594 124.259 43.6333L122.616 42.4917ZM108.344 48.625C101.486 48.625 96.8372 46.5321 94.1053 42.5585L92.4572 43.6915C95.6837 48.3846 101.076 50.625 108.344 50.625V48.625ZM94.1071 42.5612C91.3013 38.4513 89.8438 32.7566 89.8438 25.375H87.8438C87.8438 32.9934 89.3445 39.1321 92.4554 43.6888L94.1071 42.5612ZM109.906 40.6562C110.773 40.6562 111.481 40.6327 112.017 40.5814C112.284 40.5558 112.53 40.5214 112.743 40.4729C112.922 40.4318 113.204 40.3545 113.444 40.175L112.244 38.575C112.358 38.4893 112.425 38.4939 112.296 38.5232C112.201 38.545 112.049 38.5692 111.827 38.5905C111.383 38.6329 110.748 38.6562 109.906 38.6562V40.6562ZM113.713 39.869C114.34 38.765 114.752 36.9965 115.024 34.7122L113.038 34.4753C112.769 36.7327 112.389 38.1516 111.974 38.881L113.713 39.869ZM115.024 34.7111C115.301 32.3729 115.438 29.7704 115.438 26.9062H113.438C113.438 29.7088 113.303 32.2313 113.038 34.4764L115.024 34.7111ZM115.438 26.9062C115.438 23.895 115.29 21.0961 114.993 18.511L113.007 18.739C113.293 21.2373 113.438 23.9592 113.438 26.9062H115.438ZM114.994 18.5199C114.723 15.951 114.326 14.0032 113.742 12.8101L111.946 13.6899C112.361 14.5385 112.735 16.174 113.006 18.7301L114.994 18.5199ZM113.468 12.4691C112.773 11.9131 111.829 11.5567 110.731 11.3327L110.331 13.2923C111.276 13.485 111.872 13.7536 112.219 14.0309L113.468 12.4691ZM110.731 11.3327C109.641 11.1101 108.453 10.9906 107.173 10.9689L107.139 12.9686C108.318 12.9886 109.38 13.0982 110.331 13.2923L110.731 11.3327ZM107.156 10.9688C106.41 10.9688 105.716 11.0126 105.077 11.1038L105.36 13.0837C105.888 13.0082 106.486 12.9688 107.156 12.9688V10.9688ZM105.108 11.0999C104.514 11.1658 103.934 11.2869 103.496 11.5425L104.504 13.27C104.566 13.2339 104.798 13.1467 105.329 13.0876L105.108 11.0999ZM103.135 11.9045C102.439 13.1049 101.966 14.759 101.667 16.7917L103.646 17.0833C103.929 15.1576 104.353 13.7909 104.865 12.908L103.135 11.9045ZM101.666 16.8005C101.387 18.8146 101.25 21.1014 101.25 23.6562H103.25C103.25 21.1694 103.384 18.9771 103.647 17.0745L101.666 16.8005ZM101.25 23.6562C101.25 26.547 101.408 29.4273 101.725 32.2971L103.713 32.0779C103.404 29.281 103.25 26.4738 103.25 23.6562H101.25ZM101.725 32.2971C102.04 35.151 102.433 37.3904 102.919 38.9797L104.831 38.3953C104.4 36.9846 104.023 34.8907 103.713 32.0779L101.725 32.2971ZM103.144 39.3698C103.466 39.7147 103.921 39.9172 104.34 40.0529C104.786 40.1974 105.331 40.309 105.955 40.3965L106.233 38.416C105.669 38.3369 105.25 38.2453 104.957 38.1502C104.636 38.0463 104.576 37.9728 104.606 38.0052L103.144 39.3698ZM105.955 40.3965C107.194 40.5704 108.511 40.6562 109.906 40.6562V38.6562C108.593 38.6562 107.369 38.5754 106.233 38.416L105.955 40.3965ZM132.594 38.9688L132.91 38.0201L132.428 37.8595L132.015 38.1536L132.594 38.9688ZM133.781 39.4062L133.427 40.3412L133.446 40.3485L133.465 40.3549L133.781 39.4062ZM135.844 39.9375L135.653 40.9191L136.844 41.1507V39.9375H135.844ZM135.844 10.5H136.844V9.78214L136.164 9.55253L135.844 10.5ZM130.938 8.84375L130.017 9.23561L130.193 9.64789L130.618 9.79122L130.938 8.84375ZM130.781 1.78125L130.526 0.814349L130.04 0.942723L129.853 1.40986L130.781 1.78125ZM136.188 0.875L136.286 1.87017L136.295 1.86924L136.188 0.875ZM150.125 1.1875L151.014 0.729324L150.792 0.298416L150.316 0.205885L150.125 1.1875ZM154.75 12.5938L153.811 12.9372L153.812 12.9403L154.75 12.5938ZM162.188 34.5625L161.235 34.8669L161.486 35.6519L162.304 35.5556L162.188 34.5625ZM162.719 34.5L162.836 35.4931L163.829 35.3763L163.712 34.3834L162.719 34.5ZM160.906 16.4062L159.91 16.49L159.91 16.4933L160.906 16.4062ZM160.031 2.15625L159.612 1.24829L159.031 1.51642V2.15625H160.031ZM163.656 1L163.855 1.97999L163.863 1.9785L163.87 1.9769L163.656 1ZM172.625 1.6875L173.622 1.76402L173.676 1.06032L173.031 0.773688L172.625 1.6875ZM169.594 41.1875L168.597 41.111L168.569 41.4653L168.772 41.7573L169.594 41.1875ZM171.625 46.6875L172.364 47.361L172.676 47.0189L172.617 46.5598L171.625 46.6875ZM167.719 48.875L167.997 49.8357L168.004 49.8335L167.719 48.875ZM158.031 49.1562L157.785 50.1254L157.789 50.1264L158.031 49.1562ZM155.156 47.7188L154.156 47.7054L154.15 48.146L154.472 48.4476L155.156 47.7188ZM155.562 43.4375L156.544 43.6275L156.609 43.2941L156.457 42.9903L155.562 43.4375ZM151.031 33.125L150.097 33.4812L150.099 33.4874L151.031 33.125ZM145.531 18.125L146.473 17.7881L146.472 17.7857L145.531 18.125ZM144.156 14.3125L145.097 13.9732L144.814 13.1891L143.992 13.3261L144.156 14.3125ZM143.969 14.3438L143.804 13.3574L142.848 13.5167L142.978 14.4772L143.969 14.3438ZM145.375 28.7188L144.378 28.7975L144.378 28.7977L145.375 28.7188ZM144.031 47.8438L143.383 47.0821L143.378 47.0869L144.031 47.8438ZM131.781 47.75L131.222 48.5788L131.234 48.5868L131.246 48.5945L131.781 47.75ZM130.031 46.125H129.031V46.4176L129.189 46.6641L130.031 46.125ZM132.278 39.9174C132.442 39.9723 132.818 40.1104 133.427 40.3412L134.136 38.4713C133.536 38.2438 133.12 38.0902 132.91 38.0201L132.278 39.9174ZM133.465 40.3549C134.137 40.5789 134.867 40.7663 135.653 40.9191L136.035 38.9559C135.321 38.817 134.676 38.6503 134.097 38.4576L133.465 40.3549ZM136.844 39.9375V10.5H134.844V39.9375H136.844ZM136.164 9.55253L131.257 7.89628L130.618 9.79122L135.524 11.4475L136.164 9.55253ZM131.858 8.45189C131.44 7.47225 131.219 6.31788 131.219 4.96875H129.219C129.219 6.53629 129.476 7.96525 130.017 9.23561L131.858 8.45189ZM131.219 4.96875C131.219 3.88646 131.39 2.95317 131.71 2.15264L129.853 1.40986C129.423 2.48433 129.219 3.67604 129.219 4.96875H131.219ZM131.036 2.74815C132.47 2.36974 134.217 2.07497 136.286 1.87013L136.089 -0.120134C133.95 0.0916939 132.092 0.401095 130.526 0.814349L131.036 2.74815ZM136.295 1.86924C138.387 1.64361 140.403 1.53125 142.344 1.53125V-0.46875C140.326 -0.46875 138.238 -0.351941 136.08 -0.119235L136.295 1.86924ZM142.344 1.53125C145.234 1.53125 147.762 1.74669 149.934 2.16912L150.316 0.205885C147.988 -0.246695 145.328 -0.46875 142.344 -0.46875V1.53125ZM149.236 1.64568C150.245 3.6035 151.768 7.35009 153.811 12.9372L155.689 12.2503C153.649 6.67075 152.088 2.81317 151.014 0.729324L149.236 1.64568ZM153.812 12.9403C155.867 18.504 158.341 25.8113 161.235 34.8669L163.14 34.2581C160.242 25.1887 157.758 17.8502 155.688 12.2472L153.812 12.9403ZM162.304 35.5556L162.836 35.4931L162.602 33.5069L162.071 33.5694L162.304 35.5556ZM163.712 34.3834C163.109 29.2501 162.506 23.2291 161.902 16.3192L159.91 16.4933C160.515 23.4167 161.12 29.4583 161.726 34.6166L163.712 34.3834ZM161.903 16.3225C161.319 9.3811 161.031 4.67089 161.031 2.15625H159.031C159.031 4.76661 159.327 9.5564 159.91 16.49L161.903 16.3225ZM160.45 3.06421C161.454 2.60081 162.587 2.23752 163.855 1.97999L163.457 0.0200129C162.058 0.30415 160.775 0.71169 159.612 1.24829L160.45 3.06421ZM163.87 1.9769C165.147 1.69746 166.304 1.5625 167.344 1.5625V-0.4375C166.134 -0.4375 164.832 -0.280794 163.443 0.0230999L163.87 1.9769ZM167.344 1.5625C169.036 1.5625 170.658 1.90771 172.219 2.60131L173.031 0.773688C171.217 -0.032712 169.318 -0.4375 167.344 -0.4375V1.5625ZM171.628 1.61098L168.597 41.111L170.591 41.264L173.622 1.76402L171.628 1.61098ZM168.772 41.7573C169.754 43.1735 170.38 44.8512 170.633 46.8152L172.617 46.5598C172.328 44.3155 171.6 42.3265 170.416 40.6177L168.772 41.7573ZM170.886 46.014C170.197 46.7704 169.081 47.4261 167.434 47.9165L168.004 49.8335C169.856 49.2822 171.345 48.4796 172.364 47.361L170.886 46.014ZM167.441 47.9144C165.81 48.3861 164.06 48.625 162.188 48.625V50.625C164.232 50.625 166.17 50.3639 167.997 49.8356L167.441 47.9144ZM162.188 48.625C160.734 48.625 159.432 48.4756 158.274 48.1861L157.789 50.1264C159.131 50.4619 160.599 50.625 162.188 50.625V48.625ZM158.278 48.1871C157.158 47.9025 156.37 47.4867 155.841 46.9899L154.472 48.4476C155.318 49.2425 156.446 49.785 157.785 50.1254L158.278 48.1871ZM156.156 47.7321C156.176 46.2182 156.307 44.8513 156.544 43.6275L154.581 43.2475C154.318 44.607 154.178 46.0943 154.156 47.7054L156.156 47.7321ZM156.457 42.9903C154.91 39.8967 153.412 36.4879 151.963 32.7626L150.099 33.4874C151.567 37.2621 153.09 40.7283 154.668 43.8847L156.457 42.9903ZM151.966 32.7688C150.532 29.0071 148.701 24.0143 146.473 17.7881L144.59 18.4619C146.82 24.694 148.656 29.7013 150.097 33.4812L151.966 32.7688ZM146.472 17.7857L145.097 13.9732L143.216 14.6518L144.591 18.4643L146.472 17.7857ZM143.992 13.3261L143.804 13.3574L144.133 15.3301L144.321 15.2989L143.992 13.3261ZM142.978 14.4772C143.411 17.6992 143.878 22.4689 144.378 28.7975L146.372 28.64C145.872 22.302 145.401 17.4883 144.96 14.2103L142.978 14.4772ZM144.378 28.7977C144.878 35.1069 145.125 39.6881 145.125 42.5625H147.125C147.125 39.6036 146.872 34.9556 146.372 28.6398L144.378 28.7977ZM145.125 42.5625C145.125 44.689 144.497 46.1342 143.383 47.0821L144.679 48.6054C146.357 47.1783 147.125 45.1027 147.125 42.5625H145.125ZM143.378 47.0869C142.267 48.0459 140.399 48.625 137.562 48.625V50.625C140.601 50.625 143.045 50.0166 144.685 48.6006L143.378 47.0869ZM137.562 48.625C136.775 48.625 135.905 48.4727 134.947 48.147L134.303 50.0405C135.428 50.4231 136.517 50.625 137.562 50.625V48.625ZM134.947 48.147C133.974 47.8161 133.098 47.4012 132.317 46.9055L131.246 48.5945C132.172 49.1821 133.193 49.6631 134.303 50.0405L134.947 48.147ZM132.341 46.9212C131.558 46.393 131.102 45.9422 130.874 45.5859L129.189 46.6641C129.628 47.3495 130.338 47.982 131.222 48.5788L132.341 46.9212ZM131.031 46.125C131.031 44.7286 131.244 43.4102 131.666 42.1643L129.772 41.5232C129.277 42.9856 129.031 44.5214 129.031 46.125H131.031ZM131.666 42.1643C132.087 40.9199 132.617 40.1791 133.173 39.7839L132.015 38.1536C130.987 38.8834 130.267 40.0593 129.772 41.5232L131.666 42.1643Z" fill="black"/>
</g>
<defs>
<filter id="filter0_d_2_2" x="0.59375" y="0.53125" width="176.031" height="57.125" filterUnits="userSpaceOnUse" color-interpolation-filters="sRGB">
<feFlood flood-opacity="0" result="BackgroundImageFix"/>
<feColorMatrix in="SourceAlpha" type="matrix" values="0 0 0 0 0 0 0 0 0 0 0 0 0 0 0 0 0 0 127 0" result="hardAlpha"/>
<feOffset dy="4"/>
<feGaussianBlur stdDeviation="2"/>
<feComposite in2="hardAlpha" operator="out"/>
<feColorMatrix type="matrix" values="0 0 0 0 0 0 0 0 0 0 0 0 0 0 0 0 0 0 0.25 0"/>
<feBlend mode="normal" in2="BackgroundImageFix" result="effect1_dropShadow_2_2"/>
<feBlend mode="normal" in="SourceGraphic" in2="effect1_dropShadow_2_2" result="shape"/>
</filter>
</defs>
</svg>
